<svg width="127" height="33" viewBox="0 0 127 33" fill="none" xmlns="http://www.w3.org/2000/svg">
<path d="M2.67188 32.0156C1.94271 31.9323 1.57812 31.5365 1.57812 30.8281L1.625 29.4375C1.625 29.1979 1.72917 29.0781 1.9375 29.0781C2.28125 29.1094 2.88021 29.1823 3.73438 29.2969C4.59896 29.4219 5.91667 29.4844 7.6875 29.4844C8.61458 29.4844 9.35417 29.4219 9.90625 29.2969C10.4583 29.1823 10.8854 28.9688 11.1875 28.6562C11.5 28.3542 11.7031 27.9583 11.7969 27.4688C11.8906 26.9792 11.9375 26.3802 11.9375 25.6719C11.625 25.7031 11.151 25.7344 10.5156 25.7656C9.89062 25.7969 9.16667 25.8125 8.34375 25.8125C7.30208 25.8125 6.30208 25.7188 5.34375 25.5312C4.39583 25.3438 3.55208 24.974 2.8125 24.4219C2.07292 23.8698 1.47917 23.099 1.03125 22.1094C0.59375 21.1094 0.375 19.7969 0.375 18.1719C0.375 16.9427 0.473958 15.8281 0.671875 14.8281C0.869792 13.8281 1.26042 12.9688 1.84375 12.25C2.42708 11.5312 3.25521 10.9792 4.32812 10.5938C5.41146 10.2083 6.8125 10.0156 8.53125 10.0156C9.63542 10.0156 10.6354 10.0729 11.5312 10.1875C12.4375 10.2917 13.3229 10.4323 14.1875 10.6094C14.9896 10.7031 15.3906 11.1354 15.3906 11.9062V24.6094C15.3906 26.0781 15.2656 27.3021 15.0156 28.2812C14.7656 29.2708 14.349 30.0625 13.7656 30.6562C13.1823 31.2604 12.4062 31.6927 11.4375 31.9531C10.4792 32.2135 9.27604 32.3438 7.82812 32.3438C6.57812 32.3438 5.53646 32.3125 4.70312 32.25C3.86979 32.1875 3.19271 32.1094 2.67188 32.0156ZM11.9375 22.4844V13.75C11.9375 13.5 11.8125 13.3281 11.5625 13.2344C11.2812 13.1719 10.8958 13.1198 10.4062 13.0781C9.91667 13.0365 9.38021 13.0156 8.79688 13.0156C7.84896 13.0156 7.05729 13.0781 6.42188 13.2031C5.79688 13.3177 5.29167 13.5625 4.90625 13.9375C4.52083 14.3021 4.25 14.8229 4.09375 15.5C3.94792 16.1667 3.875 17.0677 3.875 18.2031C3.875 19.0365 3.92708 19.7448 4.03125 20.3281C4.14583 20.9115 4.36979 21.3906 4.70312 21.7656C5.03646 22.1302 5.51042 22.3958 6.125 22.5625C6.73958 22.7292 7.55208 22.8125 8.5625 22.8125C9.23958 22.8125 9.90625 22.7812 10.5625 22.7188C11.2292 22.6562 11.6875 22.5781 11.9375 22.4844ZM20.2181 25.9375H17.5775C17.3379 25.9375 17.2181 25.8021 17.2181 25.5312V15.8281C17.2181 13.8698 17.7233 12.4531 18.7337 11.5781C19.7546 10.6927 21.265 10.25 23.265 10.25C23.7337 10.25 24.2025 10.2656 24.6712 10.2969C25.1504 10.3281 25.5775 10.3698 25.9525 10.4219C26.5775 10.526 26.89 10.8646 26.89 11.4375L26.8431 12.8906C26.8431 13.1094 26.7233 13.2188 26.4837 13.2188C26.2129 13.2188 25.7494 13.2135 25.0931 13.2031C24.4473 13.1927 23.8015 13.1875 23.1556 13.1875C22.3119 13.1875 21.6765 13.349 21.2494 13.6719C20.8327 13.9948 20.6244 14.5469 20.6244 15.3281V25.5312C20.6244 25.8021 20.489 25.9375 20.2181 25.9375ZM28.1706 17.7656C28.1706 14.8073 28.9363 12.7865 30.4675 11.7031C32.0092 10.6094 33.8998 10.0625 36.1394 10.0625C38.3685 10.0625 40.2644 10.6094 41.8269 11.7031C43.3894 12.7865 44.1706 14.8073 44.1706 17.7656C44.1706 18.9427 44.056 20.0365 43.8269 21.0469C43.6081 22.0469 43.1915 22.9115 42.5769 23.6406C41.9623 24.3698 41.1394 24.9427 40.1081 25.3594C39.0769 25.776 37.754 25.9844 36.1394 25.9844C34.5144 25.9844 33.1863 25.776 32.155 25.3594C31.1238 24.9427 30.3113 24.3698 29.7175 23.6406C29.1342 22.9115 28.7279 22.0469 28.4988 21.0469C28.28 20.0365 28.1706 18.9427 28.1706 17.7656ZM40.655 17.7656C40.655 16.099 40.3477 14.8906 39.7331 14.1406C39.1185 13.3802 37.9206 13 36.1394 13C34.3477 13 33.1446 13.3802 32.53 14.1406C31.9154 14.8906 31.6081 16.099 31.6081 17.7656C31.6081 19.8906 31.9571 21.3021 32.655 22C33.3529 22.6979 34.5144 23.0469 36.1394 23.0469C37.754 23.0469 38.9102 22.6979 39.6081 22C40.306 21.3021 40.655 19.8906 40.655 17.7656ZM74.9494 17.7031L79.7931 16.8438C80.4806 16.7292 81.0223 16.6042 81.4181 16.4688C81.8244 16.3333 82.1265 16.1823 82.3244 16.0156C82.5327 15.849 82.6629 15.6562 82.715 15.4375C82.7775 15.2188 82.8087 14.9583 82.8087 14.6562C82.8087 14 82.5483 13.5208 82.0275 13.2188C81.5067 12.9167 80.6265 12.7656 79.3869 12.7656C78.4806 12.7656 77.741 12.8438 77.1681 13C76.5952 13.1458 76.1421 13.3958 75.8087 13.75C75.4754 14.1042 75.2462 14.5625 75.1212 15.125C75.0067 15.6875 74.9494 16.3802 74.9494 17.2031V17.7031ZM75.1056 20.2969C75.3244 21.3906 75.7879 22.1146 76.4962 22.4688C77.215 22.8229 78.314 23 79.7931 23C80.2931 23 80.814 22.9896 81.3556 22.9688C81.9077 22.9375 82.4285 22.901 82.9181 22.8594C83.4181 22.8177 83.8452 22.7865 84.1994 22.7656C84.5535 22.7344 84.7879 22.7188 84.9025 22.7188C85.1421 22.7188 85.2619 22.8542 85.2619 23.125L85.3087 24.5312C85.34 24.9375 85.2515 25.2396 85.0431 25.4375C84.8348 25.625 84.5379 25.7448 84.1525 25.7969C83.6317 25.8594 82.9598 25.9062 82.1369 25.9375C81.314 25.9583 80.3712 25.9688 79.3087 25.9688C77.7462 25.9688 76.4546 25.776 75.4337 25.3906C74.4233 25.0052 73.6212 24.4635 73.0275 23.7656C72.4442 23.0677 72.0327 22.2188 71.7931 21.2188C71.564 20.2188 71.4494 19.0885 71.4494 17.8281C71.4494 16.3177 71.6212 15.0573 71.965 14.0469C72.3087 13.026 72.8087 12.2135 73.465 11.6094C74.1212 11.0052 74.9233 10.5833 75.8712 10.3438C76.8192 10.0938 77.9077 9.96875 79.1369 9.96875C80.564 9.96875 81.741 10.1094 82.6681 10.3906C83.6056 10.6615 84.34 11.0156 84.8712 11.4531C85.4129 11.8906 85.7827 12.3854 85.9806 12.9375C86.189 13.4792 86.2931 14.026 86.2931 14.5781C86.2931 15.2865 86.1942 15.901 85.9962 16.4219C85.8087 16.9427 85.5015 17.3854 85.0744 17.75C84.6577 18.1042 84.1265 18.3958 83.4806 18.625C82.8348 18.8542 82.0587 19.0521 81.1525 19.2188L75.1056 20.2969ZM94.8706 25.9375C93.3394 25.9375 92.1102 25.7969 91.1831 25.5156C90.256 25.2344 89.5425 24.8698 89.0425 24.4219C88.5425 23.9635 88.2144 23.4583 88.0581 22.9062C87.9019 22.3542 87.8238 21.7969 87.8238 21.2344C87.8238 19.8906 88.2717 18.8958 89.1675 18.25C90.0633 17.6042 91.3863 17.1094 93.1363 16.7656C93.9175 16.6406 94.5894 16.5312 95.1519 16.4375C95.7248 16.3438 96.1988 16.2604 96.5738 16.1875C96.9488 16.1042 97.2508 16.0312 97.48 15.9688C97.7196 15.9062 97.9175 15.8438 98.0738 15.7812C98.23 15.7188 98.3394 15.651 98.4019 15.5781C98.4644 15.4948 98.4956 15.3438 98.4956 15.125C98.4956 14.3438 98.2352 13.7917 97.7144 13.4688C97.204 13.1354 96.2873 12.9688 94.9644 12.9688C93.2144 12.9688 91.9123 13.0417 91.0581 13.1875C90.2144 13.3229 89.6363 13.3906 89.3238 13.3906C89.1363 13.3906 89.0425 13.2812 89.0425 13.0625L88.9956 11.6875C88.9644 11.2812 89.0477 10.9948 89.2456 10.8281C89.454 10.651 89.73 10.5312 90.0738 10.4688C90.5529 10.4062 91.204 10.3438 92.0269 10.2812C92.8602 10.2188 93.8863 10.1875 95.105 10.1875C97.4592 10.1875 99.1779 10.6198 100.261 11.4844C101.345 12.3385 101.886 13.7865 101.886 15.8281V24.2031C101.886 24.9531 101.49 25.3906 100.699 25.5156C99.855 25.6719 98.9227 25.7812 97.9019 25.8438C96.8915 25.9062 95.881 25.9375 94.8706 25.9375ZM98.4956 22.9219V18.4219L92.855 19.5C91.7613 19.7188 91.2144 20.2969 91.2144 21.2344C91.2144 22.0156 91.5633 22.5417 92.2613 22.8125C92.9696 23.0729 93.9175 23.2031 95.105 23.2031C95.7404 23.2031 96.3915 23.1719 97.0581 23.1094C97.7352 23.0469 98.2144 22.9844 98.4956 22.9219ZM125.604 15.5781V25.6562C125.604 25.8854 125.464 26 125.183 26H122.558C122.276 26 122.136 25.8854 122.136 25.6562V16.0781C122.136 14.9531 121.922 14.1771 121.495 13.75C121.078 13.3229 120.328 13.1094 119.245 13.1094C118.349 13.1094 117.563 13.1979 116.886 13.375C116.656 13.4271 116.542 13.5938 116.542 13.875V25.6562C116.542 25.8854 116.401 26 116.12 26H113.401C113.172 26 113.058 25.8854 113.058 25.6562V15.75C113.058 14.7812 112.875 14.099 112.511 13.7031C112.146 13.3073 111.313 13.1094 110.011 13.1094C108.99 13.1094 108.229 13.1979 107.729 13.375C107.438 13.375 107.292 13.5417 107.292 13.875V25.6562C107.292 25.8854 107.151 26 106.87 26H104.245C103.964 26 103.823 25.8854 103.823 25.6562V12.0156C103.823 11.276 104.219 10.8229 105.011 10.6562C105.854 10.4896 106.729 10.349 107.636 10.2344C108.542 10.1198 109.558 10.0625 110.683 10.0625C111.474 10.0625 112.209 10.1354 112.886 10.2812C113.573 10.4167 114.141 10.599 114.589 10.8281C115.151 10.6615 115.828 10.4948 116.62 10.3281C117.412 10.151 118.261 10.0625 119.167 10.0625C123.459 10.0625 125.604 11.901 125.604 15.5781Z" fill="black"/>
<path d="M48 18.5333L51.6846 26L58.556 12.8952L63.4357 21.3524L72 2" stroke="#484BB4" stroke-width="3.5" stroke-linecap="round" stroke-linejoin="round"/>
</svg>
