<svg width="25" height="25" viewBox="0 0 25 25" fill="none" xmlns="http://www.w3.org/2000/svg">
<rect width="25" height="25" fill="#E1E1E1"/>
<g id="3_&#237;&#149;&#160;&#236;&#157;&#188; &#235;&#170;&#169;&#235;&#161;&#157;-&#236;&#155;&#148;&#235;&#179;&#132;" clip-path="url(#clip0_113_8317)">
<rect width="1920" height="1080" transform="translate(-1631 -20)" fill="white"/>
<g id="Group 5">
<g id="Rectangle 13" filter="url(#filter0_d_113_8317)">
<rect x="-1631" y="-20" width="1920" height="64" fill="white"/>
</g>
</g>
<g id="&#237;&#140;&#128; &#234;&#180;&#128;&#235;&#166;&#172; btn">
<rect id="Rectangle 17" x="-20" y="-8" width="129" height="40" rx="20" fill="white"/>
<g id="Frame 12">
<g id="fluent:people-team-20-filled">
<path id="Vector" d="M15.5 5.97119C15.5 6.76684 15.1839 7.5299 14.6213 8.09251C14.0587 8.65512 13.2956 8.97119 12.5 8.97119C11.7043 8.97119 10.9413 8.65512 10.3787 8.09251C9.81606 7.5299 9.49999 6.76684 9.49999 5.97119C9.49999 5.17554 9.81606 4.41248 10.3787 3.84987C10.9413 3.28726 11.7043 2.97119 12.5 2.97119C13.2956 2.97119 14.0587 3.28726 14.6213 3.84987C15.1839 4.41248 15.5 5.17554 15.5 5.97119ZM21.5 6.57119C21.5 7.20771 21.2471 7.81816 20.797 8.26825C20.347 8.71833 19.7365 8.97119 19.1 8.97119C18.4635 8.97119 17.853 8.71833 17.4029 8.26825C16.9529 7.81816 16.7 7.20771 16.7 6.57119C16.7 5.93467 16.9529 5.32422 17.4029 4.87413C17.853 4.42405 18.4635 4.17119 19.1 4.17119C19.7365 4.17119 20.347 4.42405 20.797 4.87413C21.2471 5.32422 21.5 5.93467 21.5 6.57119ZM5.89999 8.97119C6.53651 8.97119 7.14696 8.71833 7.59705 8.26825C8.04714 7.81816 8.29999 7.20771 8.29999 6.57119C8.29999 5.93467 8.04714 5.32422 7.59705 4.87413C7.14696 4.42405 6.53651 4.17119 5.89999 4.17119C5.26347 4.17119 4.65302 4.42405 4.20294 4.87413C3.75285 5.32422 3.49999 5.93467 3.49999 6.57119C3.49999 7.20771 3.75285 7.81816 4.20294 8.26825C4.65302 8.71833 5.26347 8.97119 5.89999 8.97119ZM7.69999 11.6712C7.69999 10.8432 8.37199 10.1712 9.19999 10.1712H15.8C16.628 10.1712 17.3 10.8432 17.3 11.6712V17.3712C17.3 18.6442 16.7943 19.8651 15.8941 20.7653C14.9939 21.6655 13.773 22.1712 12.5 22.1712C11.227 22.1712 10.0061 21.6655 9.10588 20.7653C8.20571 19.8651 7.69999 18.6442 7.69999 17.3712V11.6712ZM6.49999 11.6712C6.49999 11.1156 6.66799 10.6008 6.95479 10.1712H4.39999C3.57199 10.1712 2.89999 10.8432 2.89999 11.6712V16.1712C2.89994 16.6849 3.00984 17.1927 3.22232 17.6605C3.43479 18.1282 3.74492 18.5451 4.13186 18.883C4.5188 19.221 4.97359 19.4722 5.46567 19.6198C5.95776 19.7674 6.47573 19.808 6.98479 19.7388C6.66373 18.9908 6.49876 18.1852 6.49999 17.3712V11.6712ZM18.5 17.3712C18.5 18.2112 18.3272 19.0128 18.0152 19.7388C18.5243 19.808 19.0422 19.7674 19.5343 19.6198C20.0264 19.4722 20.4812 19.221 20.8681 18.883C21.2551 18.5451 21.5652 18.1282 21.7777 17.6605C21.9901 17.1927 22.1 16.6849 22.1 16.1712V11.6712C22.1 10.8432 21.428 10.1712 20.6 10.1712H18.0452C18.3332 10.6008 18.5 11.1156 18.5 11.6712V17.3712Z" fill="#AEAEAE"/>
</g>
</g>
</g>
</g>
<defs>
<filter id="filter0_d_113_8317" x="-1647" y="-32" width="1952" height="96" filterUnits="userSpaceOnUse" color-interpolation-filters="sRGB">
<feFlood flood-opacity="0" result="BackgroundImageFix"/>
<feColorMatrix in="SourceAlpha" type="matrix" values="0 0 0 0 0 0 0 0 0 0 0 0 0 0 0 0 0 0 127 0" result="hardAlpha"/>
<feOffset dy="4"/>
<feGaussianBlur stdDeviation="8"/>
<feComposite in2="hardAlpha" operator="out"/>
<feColorMatrix type="matrix" values="0 0 0 0 0.768056 0 0 0 0 0.768056 0 0 0 0 0.768056 0 0 0 0.25 0"/>
<feBlend mode="normal" in2="BackgroundImageFix" result="effect1_dropShadow_113_8317"/>
<feBlend mode="normal" in="SourceGraphic" in2="effect1_dropShadow_113_8317" result="shape"/>
</filter>
<clipPath id="clip0_113_8317">
<rect width="1920" height="1080" fill="white" transform="translate(-1631 -20)"/>
</clipPath>
</defs>
</svg>
